<svg width="161" height="47" viewBox="0 0 161 47" fill="none" xmlns="http://www.w3.org/2000/svg">
<path d="M27.8519 21.5141C22.2109 18.1641 12.9061 17.8561 7.52107 19.4904C6.65628 19.7529 5.74177 19.2645 5.47982 18.4C5.21771 17.5347 5.70537 16.6208 6.57081 16.3579C12.7525 14.4816 23.0286 14.8439 29.5226 18.6989C30.3004 19.1607 30.5556 20.1652 30.0946 20.9417C29.6332 21.7195 28.6278 21.9759 27.8519 21.5141ZM27.6671 26.476C27.2714 27.1182 26.4317 27.3196 25.7904 26.9253C21.0874 24.0344 13.9162 23.197 8.3523 24.8859C7.63078 25.104 6.86868 24.6971 6.64951 23.977C6.43211 23.2554 6.83913 22.4947 7.55935 22.2753C13.9153 20.3466 21.8167 21.2808 27.2183 24.6002C27.8596 24.9952 28.0615 25.8353 27.6671 26.476ZM25.5258 31.2412C25.2113 31.757 24.5399 31.9185 24.026 31.6042C19.9165 29.0926 14.744 28.5254 8.65245 29.9167C8.06544 30.0513 7.4804 29.6835 7.34653 29.0965C7.21208 28.5097 7.57854 27.9246 8.16684 27.7906C14.833 26.2667 20.5512 26.9226 25.1639 29.7412C25.6781 30.0553 25.8401 30.7271 25.5258 31.2412ZM17.5001 6C7.83518 6 0 13.835 0 23.4998C0 33.1656 7.83518 41 17.5001 41C27.1652 41 35 33.1656 35 23.4998C35 13.835 27.1652 6 17.5001 6Z" fill="#FDFDFD"/>
<path d="M49.188 30.126C48.264 30.126 47.436 29.976 46.704 29.676C45.972 29.376 45.384 28.932 44.94 28.344C44.508 27.756 44.28 27.048 44.256 26.22H47.532C47.58 26.688 47.742 27.048 48.018 27.3C48.294 27.54 48.654 27.66 49.098 27.66C49.554 27.66 49.914 27.558 50.178 27.354C50.442 27.138 50.574 26.844 50.574 26.472C50.574 26.16 50.466 25.902 50.25 25.698C50.046 25.494 49.788 25.326 49.476 25.194C49.176 25.062 48.744 24.912 48.18 24.744C47.364 24.492 46.698 24.24 46.182 23.988C45.666 23.736 45.222 23.364 44.85 22.872C44.478 22.38 44.292 21.738 44.292 20.946C44.292 19.77 44.718 18.852 45.57 18.192C46.422 17.52 47.532 17.184 48.9 17.184C50.292 17.184 51.414 17.52 52.266 18.192C53.118 18.852 53.574 19.776 53.634 20.964H50.304C50.28 20.556 50.13 20.238 49.854 20.01C49.578 19.77 49.224 19.65 48.792 19.65C48.42 19.65 48.12 19.752 47.892 19.956C47.664 20.148 47.55 20.43 47.55 20.802C47.55 21.21 47.742 21.528 48.126 21.756C48.51 21.984 49.11 22.23 49.926 22.494C50.742 22.77 51.402 23.034 51.906 23.286C52.422 23.538 52.866 23.904 53.238 24.384C53.61 24.864 53.796 25.482 53.796 26.238C53.796 26.958 53.61 27.612 53.238 28.2C52.878 28.788 52.35 29.256 51.654 29.604C50.958 29.952 50.136 30.126 49.188 30.126ZM58.7682 21.378C59.0682 20.91 59.4822 20.532 60.0102 20.244C60.5382 19.956 61.1562 19.812 61.8642 19.812C62.6922 19.812 63.4422 20.022 64.1142 20.442C64.7862 20.862 65.3142 21.462 65.6982 22.242C66.0942 23.022 66.2922 23.928 66.2922 24.96C66.2922 25.992 66.0942 26.904 65.6982 27.696C65.3142 28.476 64.7862 29.082 64.1142 29.514C63.4422 29.934 62.6922 30.144 61.8642 30.144C61.1682 30.144 60.5502 30 60.0102 29.712C59.4822 29.424 59.0682 29.052 58.7682 28.596V34.788H55.6902V19.956H58.7682V21.378ZM63.1602 24.96C63.1602 24.192 62.9442 23.592 62.5122 23.16C62.0922 22.716 61.5702 22.494 60.9462 22.494C60.3342 22.494 59.8122 22.716 59.3802 23.16C58.9602 23.604 58.7502 24.21 58.7502 24.978C58.7502 25.746 58.9602 26.352 59.3802 26.796C59.8122 27.24 60.3342 27.462 60.9462 27.462C61.5582 27.462 62.0802 27.24 62.5122 26.796C62.9442 26.34 63.1602 25.728 63.1602 24.96ZM72.479 30.144C71.495 30.144 70.607 29.934 69.815 29.514C69.035 29.094 68.417 28.494 67.961 27.714C67.517 26.934 67.295 26.022 67.295 24.978C67.295 23.946 67.523 23.04 67.979 22.26C68.435 21.468 69.059 20.862 69.851 20.442C70.643 20.022 71.531 19.812 72.515 19.812C73.499 19.812 74.387 20.022 75.179 20.442C75.971 20.862 76.595 21.468 77.051 22.26C77.507 23.04 77.735 23.946 77.735 24.978C77.735 26.01 77.501 26.922 77.033 27.714C76.577 28.494 75.947 29.094 75.143 29.514C74.351 29.934 73.463 30.144 72.479 30.144ZM72.479 27.48C73.067 27.48 73.565 27.264 73.973 26.832C74.393 26.4 74.603 25.782 74.603 24.978C74.603 24.174 74.399 23.556 73.991 23.124C73.595 22.692 73.103 22.476 72.515 22.476C71.915 22.476 71.417 22.692 71.021 23.124C70.625 23.544 70.427 24.162 70.427 24.978C70.427 25.782 70.619 26.4 71.003 26.832C71.399 27.264 71.891 27.48 72.479 27.48ZM84.966 27.39V30H83.4C82.284 30 81.414 29.73 80.79 29.19C80.166 28.638 79.854 27.744 79.854 26.508V22.512H78.63V19.956H79.854V17.508H82.932V19.956H84.948V22.512H82.932V26.544C82.932 26.844 83.004 27.06 83.148 27.192C83.292 27.324 83.532 27.39 83.868 27.39H84.966ZM88.2285 18.912C87.6885 18.912 87.2445 18.756 86.8965 18.444C86.5605 18.12 86.3925 17.724 86.3925 17.256C86.3925 16.776 86.5605 16.38 86.8965 16.068C87.2445 15.744 87.6885 15.582 88.2285 15.582C88.7565 15.582 89.1885 15.744 89.5245 16.068C89.8725 16.38 90.0465 16.776 90.0465 17.256C90.0465 17.724 89.8725 18.12 89.5245 18.444C89.1885 18.756 88.7565 18.912 88.2285 18.912ZM89.7585 19.956V30H86.6805V19.956H89.7585ZM97.029 22.512H95.373V30H92.295V22.512H91.179V19.956H92.295V19.668C92.295 18.432 92.649 17.496 93.357 16.86C94.065 16.212 95.103 15.888 96.471 15.888C96.699 15.888 96.867 15.894 96.975 15.906V18.516C96.387 18.48 95.973 18.564 95.733 18.768C95.493 18.972 95.373 19.338 95.373 19.866V19.956H97.029V22.512ZM108.735 19.956L102.435 34.77H99.1234L101.427 29.658L97.3414 19.956H100.779L103.101 26.238L105.405 19.956H108.735Z" fill="#FDFDFD"/>
</svg>
